<svg width="200" height="200" viewBox="0 0 200 200" fill="none" xmlns="http://www.w3.org/2000/svg">
<g clip-path="url(#clip0_986_583)">
<circle cx="100" cy="100" r="100" fill="#EAE2B7"/>
<path d="M113.073 117.143C136.57 117.143 153 101.217 153 78.3226C153 55.4286 136.57 40 113.073 40H67.9792C66.1498 40 64.6667 41.4392 64.6667 43.2143V98.5621H50.3125C48.4832 98.5621 47 100.001 47 101.776V113.929C47 115.704 48.4832 117.143 50.3125 117.143H64.6667V125.714H50.3125C48.4832 125.714 47 127.153 47 128.929V139.643C47 141.418 48.4832 142.857 50.3125 142.857H64.6667V156.786C64.6667 158.561 66.1498 160 67.9792 160H84.1442C85.9735 160 87.4567 158.561 87.4567 156.786V142.857H132.021C133.85 142.857 135.333 141.418 135.333 139.643V128.929C135.333 127.153 133.85 125.714 132.021 125.714H87.4567V117.143H113.073ZM87.4567 58.4146H109.187C122.083 58.4146 129.857 66.212 129.857 78.3226C129.857 90.599 122.083 98.5621 108.833 98.5621H87.4567V58.4146Z" fill="#D62828"/>
</g>
<defs>
<clipPath id="clip0_986_583">
<rect width="200" height="200" fill="white"/>
</clipPath>
</defs>
</svg>
