<svg width="535" height="434" viewBox="0 0 535 434" fill="none" xmlns="http://www.w3.org/2000/svg">
<path d="M0.693345 300.39H21.334V431.74H0.693345V300.39ZM36.7925 300.39H62.6872L82.765 379.013H83.1403V300.39H101.529V431.74H80.3256L55.5568 335.855H55.1815V431.74H36.7925V300.39Z" fill="#FCBF49"/>
<path d="M111.429 300.39H132.257L145.767 402.28H146.143L159.653 300.39H178.605L158.715 431.74H131.319L111.429 300.39ZM188.519 300.39H244.812V319.155H209.16V353.869H237.494V372.633H209.16V412.976H244.812V431.74H188.519V300.39ZM285.771 433.617C275.888 433.617 268.32 430.802 263.066 425.173C257.937 419.543 255.373 411.6 255.373 401.342V330.789C255.373 320.531 257.937 312.587 263.066 306.958C268.32 301.329 275.888 298.514 285.771 298.514C295.653 298.514 303.159 301.329 308.288 306.958C313.542 312.587 316.169 320.531 316.169 330.789V344.674H296.654V329.475C296.654 321.344 293.214 317.278 286.334 317.278C279.453 317.278 276.013 321.344 276.013 329.475V402.843C276.013 410.849 279.453 414.852 286.334 414.852C293.214 414.852 296.654 410.849 296.654 402.843V382.766H316.169V401.342C316.169 411.6 313.542 419.543 308.288 425.173C303.159 430.802 295.653 433.617 285.771 433.617ZM344.655 319.155H323.076V300.39H386.875V319.155H365.296V431.74H344.655V319.155ZM425.971 433.617C415.838 433.617 408.082 430.739 402.703 424.985C397.324 419.231 394.634 411.1 394.634 400.592V331.539C394.634 321.031 397.324 312.9 402.703 307.146C408.082 301.391 415.838 298.514 425.971 298.514C436.103 298.514 443.859 301.391 449.238 307.146C454.617 312.9 457.307 321.031 457.307 331.539V400.592C457.307 411.1 454.617 419.231 449.238 424.985C443.859 430.739 436.103 433.617 425.971 433.617ZM425.971 414.852C433.101 414.852 436.666 410.537 436.666 401.905V330.226C436.666 321.594 433.101 317.278 425.971 317.278C418.84 317.278 415.275 321.594 415.275 330.226V401.905C415.275 410.537 418.84 414.852 425.971 414.852ZM471.266 300.39H501.851C512.484 300.39 520.24 302.892 525.119 307.896C529.998 312.775 532.437 320.343 532.437 330.601V338.67C532.437 352.305 527.934 360.936 518.927 364.564V364.939C523.931 366.441 527.433 369.505 529.435 374.134C531.561 378.762 532.625 384.955 532.625 392.711V415.791C532.625 419.543 532.75 422.608 533 424.985C533.25 427.237 533.876 429.489 534.876 431.74H513.861C513.11 429.614 512.61 427.612 512.359 425.736C512.109 423.859 511.984 420.482 511.984 415.603V391.585C511.984 385.58 510.983 381.389 508.982 379.013C507.105 376.636 503.79 375.447 499.037 375.447H491.906V431.74H471.266V300.39ZM499.412 356.683C503.54 356.683 506.605 355.62 508.607 353.493C510.733 351.367 511.796 347.801 511.796 342.798V332.665C511.796 327.911 510.921 324.471 509.169 322.345C507.543 320.218 504.916 319.155 501.288 319.155H491.906V356.683H499.412Z" fill="#FDF0D5"/>
<path d="M290.674 164.34C334.3 164.34 364.804 133.867 364.804 90.062C364.804 46.257 334.3 16.7363 290.674 16.7363H206.95C203.554 16.7363 200.8 19.4901 200.8 22.8865V128.788H174.15C170.753 128.788 168 131.542 168 134.938V158.19C168 161.586 170.753 164.34 174.15 164.34H200.8V180.74H174.15C170.753 180.74 168 183.494 168 186.89V207.391C168 210.787 170.753 213.541 174.15 213.541H200.8V240.192C200.8 243.588 203.554 246.342 206.95 246.342H236.963C240.36 246.342 243.113 243.588 243.113 240.192V213.541H325.853C329.25 213.541 332.003 210.787 332.003 207.391V186.89C332.003 183.494 329.25 180.74 325.853 180.74H243.113V164.34H290.674ZM243.113 51.9705H283.458C307.403 51.9705 321.835 66.8898 321.835 90.062C321.835 113.551 307.403 128.788 282.802 128.788H243.113V51.9705Z" fill="#FCBF49"/>
</svg>
