<svg width="389" height="318" viewBox="0 0 389 318" fill="none" xmlns="http://www.w3.org/2000/svg">
<path d="M5.47312 213.234H20.1571V306.678H5.47312V213.234ZM31.1544 213.234H49.5761L63.8596 269.167H64.1266V213.234H77.2087V306.678H62.1242L44.5035 238.464H44.2365V306.678H31.1544V213.234Z" fill="#D62828"/>
<path d="M84.2513 213.234H99.0688L108.68 285.72H108.947L118.558 213.234H132.041L117.891 306.678H98.4014L84.2513 213.234ZM139.094 213.234H179.141V226.583H153.778V251.279H173.935V264.628H153.778V293.329H179.141V306.678H139.094V213.234ZM208.28 308.013C201.249 308.013 195.865 306.01 192.127 302.006C188.479 298.001 186.654 292.35 186.654 285.052V234.86C186.654 227.562 188.479 221.911 192.127 217.906C195.865 213.902 201.249 211.899 208.28 211.899C215.31 211.899 220.65 213.902 224.299 217.906C228.036 221.911 229.905 227.562 229.905 234.86V244.738H216.022V233.925C216.022 228.141 213.575 225.248 208.68 225.248C203.786 225.248 201.338 228.141 201.338 233.925V286.12C201.338 291.816 203.786 294.664 208.68 294.664C213.575 294.664 216.022 291.816 216.022 286.12V271.837H229.905V285.052C229.905 292.35 228.036 298.001 224.299 302.006C220.65 306.01 215.31 308.013 208.28 308.013ZM250.171 226.583H234.819V213.234H280.206V226.583H264.855V306.678H250.171V226.583ZM308.019 308.013C300.811 308.013 295.293 305.966 291.466 301.872C287.64 297.778 285.726 291.994 285.726 284.518V235.394C285.726 227.918 287.64 222.134 291.466 218.04C295.293 213.946 300.811 211.899 308.019 211.899C315.228 211.899 320.745 213.946 324.572 218.04C328.399 222.134 330.312 227.918 330.312 235.394V284.518C330.312 291.994 328.399 297.778 324.572 301.872C320.745 305.966 315.228 308.013 308.019 308.013ZM308.019 294.664C313.092 294.664 315.628 291.593 315.628 285.453V234.459C315.628 228.319 313.092 225.248 308.019 225.248C302.947 225.248 300.41 228.319 300.41 234.459V285.453C300.41 291.593 302.947 294.664 308.019 294.664ZM340.243 213.234H362.002C369.566 213.234 375.084 215.014 378.554 218.574C382.025 222.045 383.76 227.429 383.76 234.726V240.466C383.76 250.167 380.557 256.307 374.149 258.888V259.155C377.709 260.223 380.201 262.403 381.625 265.696C383.138 268.989 383.894 273.394 383.894 278.912V295.331C383.894 298.001 383.983 300.181 384.161 301.872C384.339 303.474 384.784 305.076 385.496 306.678H370.545C370.011 305.165 369.655 303.741 369.477 302.406C369.299 301.071 369.21 298.668 369.21 295.198V278.111C369.21 273.839 368.498 270.858 367.074 269.167C365.739 267.476 363.381 266.631 359.999 266.631H354.927V306.678H340.243V213.234ZM360.266 253.281C363.203 253.281 365.383 252.525 366.807 251.012C368.32 249.499 369.077 246.963 369.077 243.403V236.195C369.077 232.813 368.454 230.366 367.208 228.853C366.051 227.34 364.182 226.583 361.601 226.583H354.927V253.281H360.266Z" fill="#003049"/>
<path d="M211.767 116.675C242.802 116.675 264.504 94.9958 264.504 63.8325C264.504 32.6693 242.802 11.668 211.767 11.668H152.205C149.789 11.668 147.83 13.627 147.83 16.0432V91.3825H128.87C126.454 91.3825 124.495 93.3415 124.495 95.7578V112.299C124.495 114.715 126.454 116.675 128.87 116.675H147.83V128.342H128.87C126.454 128.342 124.495 130.301 124.495 132.717V147.301C124.495 149.718 126.454 151.677 128.87 151.677H147.83V170.636C147.83 173.052 149.789 175.011 152.205 175.011H173.557C175.973 175.011 177.932 173.052 177.932 170.636V151.677H236.794C239.21 151.677 241.169 149.718 241.169 147.301V132.717C241.169 130.301 239.21 128.342 236.794 128.342H177.932V116.675H211.767ZM177.932 36.7339H206.634C223.668 36.7339 233.935 47.3476 233.935 63.8325C233.935 80.5431 223.668 91.3825 206.167 91.3825H177.932V36.7339Z" fill="#D62828"/>
</svg>
