<svg width="18" height="18" viewBox="0 0 18 18" xmlns="http://www.w3.org/2000/svg"><path fill="#F0F3FA" d="M0 0h18v18H0z"/><path d="M4.32 4.75c0 .03 0 .06-.02.08a.11.11 0 0 1-.08.04h-.04a.32.32 0 0 1-.25-.08.4.4 0 0 1-.12-.26l-.01-.12c-.01-.1.02-.2.07-.27A.33.33 0 0 1 4.1 4h.05a.1.1 0 0 1 .08.03.12.12 0 0 1 .04.08l.05.64ZM5 4.7a.08.08 0 0 1-.06.02c-.02 0-.04 0-.05-.02h-.01a.37.37 0 0 1-.1-.27c0-.1.04-.2.1-.28l.01-.01a.4.4 0 0 1 .12-.09l.14-.03a.34.34 0 0 1 .26.1c.02.02.03.04.03.07a.1.1 0 0 1-.02.06L5 4.7ZM3.84 5.34c.13-.27.29-.15.49-.2a.26.26 0 0 0 .11-.08c.15-.15.28-.23.4-.24.16-.01.26.07.3.27.11.68-.48 1.03-1.01.7a.8.8 0 0 1-.3-.38.09.09 0 0 1 0-.07ZM3.06 5.2A.07.07 0 0 1 3 5.18a.07.07 0 0 1 0-.06V5.1a.24.24 0 0 1 .13-.17.39.39 0 0 1 .25-.04h.02a.4.4 0 0 1 .23.13c.05.06.07.14.06.2v.03c0 .02-.01.04-.03.05a.06.06 0 0 1-.05.01l-.56-.1ZM5.96 5.04c.01 0 .02 0 .03.02.02.05.01.09-.02.12-.12.12-.3.16-.52.13a.19.19 0 0 1-.11-.07.2.2 0 0 1-.05-.13V5.1a.17.17 0 0 1 .06-.13.15.15 0 0 1 .12-.03c.23.03.39.07.5.1ZM3.5 6.33a.08.08 0 0 1-.12.02v-.01a.33.33 0 0 1-.12-.24c0-.09.02-.19.08-.26l.03-.04a.39.39 0 0 1 .1-.1.35.35 0 0 1 .13-.05.3.3 0 0 1 .24.06l.04.07a.1.1 0 0 1-.02.06l-.36.49ZM5.2 6.08A.1.1 0 0 1 5.16 6a.11.11 0 0 1 .02-.08l.02-.02a.3.3 0 0 1 .23-.12c.1 0 .2.03.28.1l.03.02c.08.06.14.16.16.26.02.1 0 .2-.05.27l-.01.01a.1.1 0 0 1-.07.04.1.1 0 0 1-.07-.02l-.5-.4ZM4.6 6.9c0 .03-.03.06-.06.08a.13.13 0 0 1-.1.02l-.02-.01a.39.39 0 0 1-.25-.19.47.47 0 0 1-.05-.33v-.02a.45.45 0 0 1 .18-.28c.09-.06.2-.08.3-.06h.03a.13.13 0 0 1 .08.07.14.14 0 0 1 .02.1l-.13.61Z" fill="#FC6E2C"/><path d="M10 13c1.66 0 3-.22 3-.5s-1.34-.5-3-.5-3 .22-3 .5 1.34.5 3 .5Z" fill="#9E9E9E"/><path d="M12.83 5.03c.4-.08.7 0 .87.25l.04.03a.1.1 0 0 0 .12-.02c.11-.1.18-.14.22-.09.24.3.27.62.1.94a.15.15 0 0 0-.02.08c0 .1.06.2.01.32a.68.68 0 0 0-.03.18v.03l.03.03.67.3a.2.2 0 0 1 .07.05l.04.07c.18.54-.12 1.08-.59 1.41-.45.32-1.3.23-1.75-.06a.97.97 0 0 0-.2-.1.04.04 0 0 0-.03 0l-.01.02v.02c.12.38.31.69.66.95.54.42.98.6 1.7.92a.7.7 0 0 1 .14.1.1.1 0 0 1 .03.03.1.1 0 0 1-.01.1.1.1 0 0 1-.04.03l-.36.2a.1.1 0 0 0-.04.02l-.01.05v.42a.1.1 0 0 1-.01.05l-.03.04a.13.13 0 0 1-.1.02c-.22-.03-.43-.1-.6-.2a6.53 6.53 0 0 1-1.33-.98h-.03l-.02.03v.02c.07.55-.03 1.36-.53 1.7a.07.07 0 0 1-.08 0l-.42-.28a.1.1 0 0 0-.06-.02l-.43.04c-.03 0-.05 0-.07-.02a.1.1 0 0 1-.05-.05c-.02-.1 0-.2.07-.32l.02-.02c.28-.27.4-.59.36-.94-.05-.33-.33-.72-.75-.55a3.3 3.3 0 0 1-1.12.27.07.07 0 0 0-.02.03.06.06 0 0 0 0 .07l.4.6.03.03c.19.18.31.3.37.39a.18.18 0 0 1 0 .18.2.2 0 0 1-.07.07.22.22 0 0 1-.1.03c-.22.01-.35.11-.4.29a.23.23 0 0 1-.09.14.21.21 0 0 1-.15.04.37.37 0 0 1-.22-.14 3.36 3.36 0 0 1-.5-.73l-.03-.01a.06.06 0 0 0-.04 0c-.1.08-.22.09-.35.04a.1.1 0 0 0-.06 0 .1.1 0 0 0-.04.02c-.25.25-.5.12-.62-.15l-.02-.01a.03.03 0 0 0-.02 0l-.18.14a.14.14 0 0 1-.07.02c-.2.03-.34-.05-.42-.25a.07.07 0 0 0-.03-.03.08.08 0 0 0-.04-.01h-.04a2.73 2.73 0 0 1-1.39 1.1c-.01 0-.03 0-.05-.02a.14.14 0 0 1-.05-.03.13.13 0 0 1-.02-.05.76.76 0 0 1-.02-.3c0-.03 0-.06-.02-.1a.15.15 0 0 0-.07-.05l-.39-.13a.16.16 0 0 1 0-.32l.19-.06a.3.3 0 0 0 .08-.04c.16-.13.52-.32.7-.5l.37-.44c.3-.39.35-.87.33-1.36l-.01-.3-.02-.53c.02-.03.02-.06-.01-.08l-.01-.01C5.69 8.2 6.02 9.45 5 9.66c-.31.06-.84.04-.98-.28a.18.18 0 0 1 0-.14.2.2 0 0 1 .09-.1 2.19 2.19 0 0 0 1.17-1.51c.04-.2.2-.46.46-.8.22-.26.54-.43.97-.5.52-.1 1.05-.1 1.58 0l.6.1c.42.05.89.17 1.34.16h.03l.03-.03V6.5c-.16-.3-.14-.57.05-.8a.07.07 0 0 1 .04-.03l.05.01a1.28 1.28 0 0 0 .47.15h.02l.01-.02v-.02c.02-.4.52-.71.9-.62.02 0 .04.02.05.03.01.02.02.03.01.05l-.05.27a.1.1 0 0 0 0 .05l.03.04c.25.24.66.2.95.03a.15.15 0 0 0 .07-.1c0-.03 0-.07-.02-.1l-.14-.22a.12.12 0 0 1 .04-.17.15.15 0 0 1 .06-.02Z" fill="#09090A"/><path d="M11.94 10.93a2.1 2.1 0 0 0-.16-1.25.13.13 0 0 0-.03-.08 1.25 1.25 0 0 0-.36-.27v-.02l.02-.01c.1-.02.22.01.35.08.36.2.6.5.9.74.28.2.54.42.8.63l.56.3a.08.08 0 0 0 .07 0c.02 0 .03-.01.03-.03l.01-.03v-.32l.02-.05a.09.09 0 0 1 .05-.03.56.56 0 0 0 .22-.1l.01-.01v-.03h-.02l-.17-.05a.23.23 0 0 1-.09-.05.6.6 0 0 0-.4-.13l-.01-.09-.02-.04a.07.07 0 0 0-.05-.02l-.16-.02a.1.1 0 0 1-.04 0c-.76-.4-1.46-1.08-1.4-1.93l.01-.05a.11.11 0 0 1 .04-.03.12.12 0 0 1 .12 0c.43.23.94.51 1.38.49.62-.04 1.08-.52 1.05-1.1 0-.04-.02-.09-.04-.13a.28.28 0 0 0-.11-.1L14 6.98 14 6.96c-.02-.04-.05-.06-.1-.08a.12.12 0 0 0-.1.02c-.16.12-.36.15-.6.1h-.12a.2.2 0 0 0-.1.06c-.4.47-1.14.27-1.3-.27a.1.1 0 0 1 .01-.08l.03-.03.04-.02c.65-.13 1.34-.25 2-.52a.15.15 0 0 0 .07-.06c.1-.16.15-.31.15-.45l-.01-.04a.09.09 0 0 0-.04-.03c-.11-.05-.19-.04-.22.04l-.04.04a.1.1 0 0 1-.1 0 .09.09 0 0 1-.03-.05l-.12-.29a.15.15 0 0 0-.06-.07.17.17 0 0 0-.2.02.14.14 0 0 0-.04.08l.02.15c.03.11 0 .2-.1.26a.66.66 0 0 1-.47.12l.35-.17a.14.14 0 0 0 .07-.06.36.36 0 0 0-.06-.42l-.01-.03v-.03l.03-.02h.03l.33.02c.03 0 .06 0 .09.02.12.08.18.17.17.27 0 .02.01.05.03.06a.1.1 0 0 0 .06.03.14.14 0 0 0 .13-.07c.04-.06.1-.1.2-.09l.05.02.03.04c.07.29.04.39-.07.62a.24.24 0 0 0-.02.16c.04.17.03.33-.03.5a.1.1 0 0 0 0 .07c0 .02.01.03.03.05.16.12.26.18.3.2.14.02.3.08.45.16.02 0 .03.02.05.03l.02.05c.06.48-.09.85-.45 1.13-.7.54-1.44.2-2.05-.24a.07.07 0 0 0-.06 0l-.03.01-.01.03c-.09.3.16.8.33.97a5.8 5.8 0 0 1 .37.37 1.4 1.4 0 0 1 .38.28l1.36.63.01.02v.02h-.01l-.34.19a.11.11 0 0 0-.04.04.1.1 0 0 0-.02.05V11.18l-.02.02a.06.06 0 0 1-.04.01c-.24-.04-.7-.32-.96-.51A15 15 0 0 1 12 9.66h-.03l-.02.03v.03a2.04 2.04 0 0 1-.23 2.05.05.05 0 0 1-.04 0l-.02-.01c-.22-.34-.48-.19-.8-.24h-.02v-.05l.03-.01h.57l.04.01c.05.05.1.08.17.08.04.01.08-.02.1-.07.1-.18.16-.36.19-.55Z" fill="#fff"/><path d="M13.74 10.22a.71.71 0 0 0-.28.53 41.3 41.3 0 0 0-.8-.63c-.3-.24-.54-.53-.9-.74a.54.54 0 0 0-.35-.08h-.02v.03l.01.01c.11.05.23.14.35.26a3.39 3.39 0 0 0 .15.4c.07.22.08.53.04.93-.2-.05-.4-.06-.6-.01h-.04a.06.06 0 0 1-.03-.03c-.03-.06-.01-.1.05-.15.05-.18.06-.37.01-.58-.15-.51-.54-.7-1.17-.57a.16.16 0 0 1-.11-.02.14.14 0 0 1-.04-.04.13.13 0 0 1-.02-.05c-.03-.12-.04-.44.05-.55.25-.3.7-.19.96-.2.05 0 .1-.03.14-.06a.14.14 0 0 0 .05-.12c-.03-.4-1.06-.46-1.01-.97 0-.04.02-.09.05-.13l.19-.3a.22.22 0 0 0 .04-.09l.02-.17c0-.02 0-.03.02-.03 0-.01.01-.02.03-.02l.28-.08h.01l.01-.02a.02.02 0 0 0 0-.02 1.17 1.17 0 0 1-.43-.58.11.11 0 0 1 0-.07c0-.02 0-.04.03-.06a.15.15 0 0 1 .14-.03c.07.02.15.02.24.08.11.07.24.1.37.07h.03l.02-.03a.07.07 0 0 0 0-.06c-.13-.33-.04-.55.3-.65.07.34.25.5.54.46l.5.01c.13.03.29-.02.46-.12.1-.06.13-.15.1-.26a.96.96 0 0 1-.02-.15c0-.03.02-.06.04-.08a.17.17 0 0 1 .2-.02c.03.01.05.04.06.07l.12.3.03.03a.1.1 0 0 0 .1 0c.02 0 .03-.01.04-.03.03-.08.1-.09.22-.04l.04.03.01.04c0 .14-.05.29-.15.45a.15.15 0 0 1-.07.06c-.66.27-1.35.39-2 .52a.12.12 0 0 0-.07.05.1.1 0 0 0-.01.08c.16.54.9.74 1.3.27a.2.2 0 0 1 .1-.06.22.22 0 0 1 .11 0c.25.05.45.02.6-.1a.12.12 0 0 1 .1-.02c.06.02.1.04.1.08l.02.01.52.24c.04.02.08.05.1.09.03.04.05.09.05.13.03.58-.43 1.06-1.05 1.1-.44.02-.95-.26-1.38-.5a.12.12 0 0 0-.16.04.1.1 0 0 0-.02.05c-.05.85.65 1.54 1.41 1.92a.1.1 0 0 0 .04.01l.16.02.05.02.02.04v.09Z" fill="#FC6E2C"/><path d="M11.65 5.41c-.03.04-.08.03-.13-.02-.33.1-.42.32-.28.65a.07.07 0 0 1 0 .06l-.03.02a.08.08 0 0 1-.03.01.56.56 0 0 1-.37-.07c-.1-.06-.17-.06-.24-.08a.15.15 0 0 0-.14.03.12.12 0 0 0-.04.06v.07a1.17 1.17 0 0 0 .44.59v.03h-.02l-.28.08c-.02 0-.03 0-.03.02-.01 0-.02.01-.02.03l-.02.17c0 .04-.02.07-.04.1l-.2.29a.31.31 0 0 0-.04.13c-.05.5.98.58 1.01.97 0 .04-.02.09-.05.12a.24.24 0 0 1-.14.05c-.26.02-.71-.1-.96.21-.09.11-.08.43-.05.55 0 .02 0 .03.02.05l.04.04a.15.15 0 0 0 .11.02c.63-.13 1.02.06 1.17.57-.05-.02-.06.04-.04.17-.03-.34-.22-.58-.58-.74a.18.18 0 0 0-.08-.01c-.2.01-.37.05-.51.1a3.51 3.51 0 0 1-1.15.26l-.01.02a.04.04 0 0 0 0 .04 3.57 3.57 0 0 0 .9 1.23.05.05 0 0 1 0 .04l-.02.02c-.03.02-.08.02-.15 0h-.04a.07.07 0 0 1-.02-.04.9.9 0 0 0-.31-.42 1.62 1.62 0 0 1-.42-.8.1.1 0 0 0-.04-.06.1.1 0 0 0-.06-.02l-.43-.03-.05-.01c-.2-.07-.35-.29-.47-.51a.24.24 0 0 0-.1-.09c-.37-.22-.7 0-1.01.23-.15.1-.3.1-.45.17a.14.14 0 0 0-.07.06c-.2.38-.5.7-.85.94a.4.4 0 0 1 .24-.26c.02 0 .04-.02.06-.04L6 9.97a.47.47 0 0 0 .1-.17c.06-.24.15-.38.26-.41.21 0 .39-.07.53-.19a.21.21 0 0 0 .08-.12.2.2 0 0 0-.02-.14l-.18-.32a.11.11 0 0 1-.01-.09c.07-.24.17-.44-.23-.49a.1.1 0 0 0-.06.02l-.02.03-.01.03-.08 1.04-.04-1.39c.35.2.7.22 1.03.05.26-.14.43-.43.64-.6a.42.42 0 0 1 .24-.09c.3-.02.58-.06.83-.1.27-.06.38-.19.31-.39l1.07.1c.01 0 .03 0 .04-.02l.03-.02a.07.07 0 0 0 0-.08c-.16-.2-.29-.52-.17-.77l.03-.03h.05l.38.14.03.01c.06.07.13.09.23.05.02 0 .03-.02.04-.03l.01-.04a.12.12 0 0 0-.04-.1.1.1 0 0 1-.04-.04.1.1 0 0 1 0-.05c.06-.26.23-.43.51-.5.06-.02.1 0 .11.03.02.03.01.07 0 .12Z" fill="#fff"/><path d="M8.29 6.49c-.61-.02-1.2 0-1.75.08a.63.63 0 0 0-.26.11l-.36.28a.47.47 0 0 0-.1.13c-.1.19-.17.3-.2.33a.23.23 0 0 0-.07.1l-.26.74-.2.4c-.04.03-.07.02-.08-.01v-.02l.52-1.27v-.02l.3-.43.02-.04c.29-.26.6-.4.9-.45.46-.06.97-.04 1.54.07Z" fill="#EDC59F"/><path d="M9.38 6.64c.07.2-.04.33-.31.38-.25.05-.53.09-.83.11a.42.42 0 0 0-.24.1c-.2.16-.38.45-.64.59-.33.17-.68.16-1.03-.05-.05-.1-.09-.13-.1-.1l.04-.06v-.03l.07-.45c.07 0 .1-.06.1-.18v-.01a.03.03 0 0 0-.03 0h-.02a.46.46 0 0 1-.24.14h-.02a.04.04 0 0 0-.02.03v.02l.03.03h.04c-.25.32-.4.64-.45.99-.1-.02-.16.04-.18.16-.03.17-.07.32-.13.43l-.33-.07.2-.4.26-.76a.23.23 0 0 1 .06-.1c.04-.02.1-.13.2-.32l.11-.13.36-.28c.1-.07.18-.1.26-.11.56-.07 1.14-.1 1.75-.08.34 0 .7.05 1.1.15Z" fill="#FC6E2C"/><path d="m6.34 7.13-.2.03a.1.1 0 0 1-.02-.03.04.04 0 0 1 0-.03l.01-.01.02-.01c.1-.02.18-.07.24-.14h.02a.03.03 0 0 1 .02 0l.01.01c0 .12-.03.18-.1.18Z" fill="#fff"/><path d="M6.37 9.39c-.07-.07-.07-.15 0-.23l.08-1.04v-.03l.03-.03a.1.1 0 0 1 .06-.02c.4.05.3.25.23.49v.09l.19.32c.02.05.03.1.02.14a.21.21 0 0 1-.08.12.81.81 0 0 1-.53.19Z" fill="#FC6E2C"/><path d="M5.73 8.15c-.08.5-.2 1.05-.69 1.29L5 9.43l-.03-.01-.02-.03v-.04c.3-.11.45-.32.47-.61.06-.11.1-.26.13-.43.02-.12.08-.18.18-.16Z" fill="#fff"/><path d="m4.94 9.35.01.04.02.03H5l.04.02a.73.73 0 0 1-.56.1l-.04-.01-.27-.17a.08.08 0 0 1-.03-.03.07.07 0 0 1 0-.03v-.08l.01-.01a.65.65 0 0 1 .23-.08h.01v.01a.26.26 0 0 0 0 .18c.02.05.07.07.16.07.13 0 .26 0 .4-.04Z" fill="#9E9E9E"/><path d="M9.32 10.83c-.23.03-.39.14-.46.33l-.38-.77-.02.03.03-.01.03-.02a.04.04 0 0 0 0-.05l-.03-.01h-.12a.07.07 0 0 0-.04.03c-.01.02-.02.03-.01.04 0 .06.03.09.08.1-.02.1-.02.2 0 .3h-.28a.06.06 0 0 1-.05-.03l-.01-.02v-.02c.02-.1-.02-.19-.1-.25l-.02-.01h-.02l-.02.01v.02c-.02.06 0 .14.05.23l-.09.18a.55.55 0 0 1-.24.02l-.03-.02-.02-.03-.1-.35a.09.09 0 0 0-.04-.04.1.1 0 0 0-.11 0 .1.1 0 0 0-.04.02l-.14.27a.14.14 0 0 1-.09.07.16.16 0 0 1-.1 0l-.05-.02a.14.14 0 0 1-.07-.07.13.13 0 0 1 0-.1l.15-.4a.1.1 0 0 0 0-.08c-.08-.13-.17-.17-.3-.11a.15.15 0 0 0-.05.05l-.75 1c-.06-.22-.23-.35-.5-.41.35-.24.63-.56.84-.94a.14.14 0 0 1 .07-.06c.16-.06.3-.06.45-.17.31-.23.64-.45 1.02-.23.03.02.07.05.09.09.12.22.26.44.47.5l.05.02.43.03a.1.1 0 0 1 .06.02.1.1 0 0 1 .04.05c.05.3.2.57.42.8Z" fill="#FC6E2C"/><path d="M7.86 10.91c-.04.11-.1.16-.2.15a.1.1 0 0 1-.05-.02.58.58 0 0 1-.19-.42v-.03l-.04-.02h-.03a.06.06 0 0 0-.03.03c-.1.16-.14.36-.4.33a.2.2 0 0 1-.08-.02.19.19 0 0 1-.06-.05.16.16 0 0 1-.03-.15c.08-.25.12-.4.12-.46v-.06a.12.12 0 0 0-.06-.03.13.13 0 0 0-.11.01 3.39 3.39 0 0 1-1.1 1.36c-.09.08-.2.14-.31.18a.11.11 0 0 1-.1-.01.1.1 0 0 1-.03-.04.09.09 0 0 1-.02-.04V11.3l-.03-.02-.5-.17-.01-.01v-.04l.16-.08a.06.06 0 0 1 .06 0l.02.02.04.1.01.03.04.02c.06 0 .15.02.25.06l.03.03.01.03v.22c0 .01 0 .03.02.04l.03.03a.1.1 0 0 0 .1 0c.21-.11.38-.26.51-.45l.75-1a.15.15 0 0 1 .06-.05c.12-.06.21-.02.29.1l.01.05a.1.1 0 0 1 0 .04l-.16.4a.13.13 0 0 0 0 .1c.01.03.04.05.07.07l.04.02h.11a.15.15 0 0 0 .09-.07l.14-.27a.1.1 0 0 1 .04-.03.1.1 0 0 1 .11 0c.02.02.03.03.03.05l.11.35.02.03.03.02c.07 0 .15 0 .24-.02Z" fill="#fff"/><path d="M11.33 10.16c.05.2.04.4-.01.58a.93.93 0 0 1-.03-.4c-.02-.14 0-.2.04-.18Z" fill="#EDC59F"/><path d="M13.74 10.22c.17 0 .3.04.41.13.03.03.06.04.1.05l.16.04h.01a.03.03 0 0 1 0 .05.56.56 0 0 1-.22.1.09.09 0 0 0-.05.03.08.08 0 0 0-.02.05v.35l-.04.03a.08.08 0 0 1-.07 0l-.56-.3c.02-.22.11-.4.28-.53Z" fill="#09090A"/><path d="M8.46 10.42c-.05 0-.07.02-.06.08-.05-.01-.08-.04-.08-.1v-.04l.05-.02a.34.34 0 0 1 .12-.01h.03v.06l-.03.02h-.03Z" fill="#EDC59F"/><path d="m8.86 11.16.2.36.03.03.04.01a.1.1 0 0 0 .04 0l.03-.02.22-.25.09.04v.01l.01.01v.01l-.01.01a.44.44 0 0 0-.23.29l-.02.04a.1.1 0 0 1-.05.03.1.1 0 0 1-.05 0 .1.1 0 0 1-.05-.03c-.36-.36-.57-.8-.63-1.3l.38.76ZM8.4 10.8c-.15.21-.3.19-.45-.07a.38.38 0 0 1-.06-.23l.01-.02h.02a.04.04 0 0 1 .04 0c.08.06.12.15.1.25a.05.05 0 0 0 .01.04l.02.02h.03l.29.01Z" fill="#fff"/><path d="M13.76 6.28a.1.1 0 0 1 .07.02l.03.02v.04c0 .37-.18.56-.52.57-.1 0-.22-.04-.3-.05a.1.1 0 0 0-.05.01.09.09 0 0 0-.04.03c-.3.42-.81.34-1.1-.03a.08.08 0 0 1-.01-.07l.03-.03.04-.02 1.85-.49Z" fill="#09090A"/><path d="M9.52 9.63c-.7.15-.5-.64-1.11-.75-.2-.03-.43-.03-.69 0-.33.05-.57-.28-.4-.55.17-.25.7-.38 1.13-.54a.8.8 0 0 0 .2-.1c.34-.26.76-.62 1.04-.5.06.03.1.07.13.13.02.06.02.12 0 .18-.1.22-.17.42-.2.59a.49.49 0 0 0 .01.2c.08.3.32 1.24-.11 1.34Z" fill="#FC6E2C"/></svg>