<svg width="18" height="18" viewBox="0 0 18 18" xmlns="http://www.w3.org/2000/svg"><path fill="#F0F3FA" d="M0 0h18v18H0z"/><path d="M9 9H8v1h1v1H6v-1h1V9H6V8h3v1ZM12 9h-1v1h1v1H9v-1h1V9H9V8h3v1Z" fill="#F9512D"/><path d="M14 13H4V6h4v.93c0 .36-.31.66-.7.66H5.5v3.91h7V7.6h-1.8c-.39 0-.7-.3-.7-.67V6h4v7Z" fill="#F9512D"/><path d="M9.88 6H8c.21-.11.25-.42.25-1.08 0-.96.61-.92.92-.92h1.93c.75 0 1.3-.76 1.48-1 .14.19.42.68.42 1.12 0 .9-.5 1.7-1.25 1.7-.74 0-1.14-.69-1.58-.69-.59 0-.44.58-.29.87Z" fill="#F9512D"/></svg>