<svg width="18" height="18" viewBox="0 0 18 18" xmlns="http://www.w3.org/2000/svg"><path fill="#F0F3FA" d="M0 0h18v18H0z"/><path fill-rule="evenodd" d="M9 4c.06 0 .1.03.14.08l4.84 8.66c.03.05.03.12 0 .17a.16.16 0 0 1-.14.09H4.16a.16.16 0 0 1-.14-.09.18.18 0 0 1 0-.17l4.84-8.66A.16.16 0 0 1 9 4Zm-3.92 7.53 3.8-4.36A.16.16 0 0 1 9 7.12c.04 0 .09.02.12.05l3.8 4.36L9 4.5l-3.92 7.02Zm8.07.76-4.08-2.04a.15.15 0 0 0-.14 0l-4.08 2.04L9 7.54l4.15 4.75Zm-.04.36H4.9L9 10.6l4.11 2.06Z" fill="#16345D"/></svg>