<svg width="18" height="18" viewBox="0 0 18 18" xmlns="http://www.w3.org/2000/svg"><path fill="#16194C" d="M0 0h18v18H0z"/><path d="M8.14 4c.89-.02 1.58.41 2.07 1.3l.01.01a.04.04 0 0 0 .03 0h.01c.51-.37 1.16-.3 1.58.2.34.45.44.96.28 1.53-.13.5-.39.92-.75 1.26a6.16 6.16 0 0 1-.72.6.12.12 0 0 0 0 .11l.04.04c.1.06.21.09.35.09h4.1c.22 0 .42.1.62.3.24.25.3.55.18.92-.01.04-.05.13-.13.26a.16.16 0 0 0-.02.08c.06.8-.29 1.2-1.04 1.2a79.79 79.79 0 0 0-1.31.01l-.01.01v.02c.07.45-.03.76-.31.95-.11.07-.33.1-.66.1L5.39 13c-.68 0-.97-.35-.88-1.05a.05.05 0 0 0 0-.03l-.02-.02h-.01c-.4-.05-1.14.08-1.62-.1-.43-.15-.7-.49-.83-1.01-.05-.36-.04-.67.05-.94.28-.87.85-1.27 1.7-1.2.31.02.6.19.85.51l.03.02h.03l.23-.04h1.75c.15 0 .28-.03.4-.07l.03-.03a.1.1 0 0 0 0-.12.74.74 0 0 0-.15-.15A2.7 2.7 0 0 1 5.9 7.13C5.55 5.48 6.57 4.04 8.14 4Z" fill="#007EC5"/><path d="M10.2 6.12a.25.25 0 0 0-.14-.13l-.14-.31A1.9 1.9 0 0 0 8.85 4.5c-.2-.08-.44-.13-.65-.2a.06.06 0 0 1-.03-.03.07.07 0 0 1-.02-.03v-.09l.51.04h.03a.3.3 0 0 1 .2 0c.52.2.9.5 1.1.92.14.25.21.38.24.38h.01l.01.01a.03.03 0 0 1 0 .04.16.16 0 0 0-.04.08v.03c0 .02.02.02.03.03.05.03.06.08.03.16l-.08.27Z" fill="#285EA6"/><path d="M8.15 4.16v.09c0 .01 0 .02.02.03l.03.03c.2.07.44.12.65.2.5.2.86.59 1.07 1.17l.14.31.02.21-.01.03-.02.01h-.03l-.01-.03c-.08-.33-.2-.68-.39-.94-.47-.65-1.1-.89-1.91-.71-.26.06-.5.17-.73.35-.64.51-.85 1.41-.64 2.23v.01l-.01.02H6.3a.03.03 0 0 1-.03 0h-.01v-.02c-.06-.24-.1-.4-.1-.5v-.07l-.01-.02-.02-.01a.04.04 0 0 0-.03 0h-.08a2.16 2.16 0 0 1 2.13-2.39Z" fill="#2AA1D9"/><path d="M10.06 5.99c.06.02.1.07.13.13l.03.27v.01h.04v-.02c.02-.9.96-1.07 1.35-.34.32 1.17-.32 1.85-1.15 2.45a.1.1 0 0 0-.04.06l-.06.24a.08.08 0 0 0 .01.07c.03.03.07.05.12.04a.4.4 0 0 0 .35.3c-.62.2-1.2.19-1.72-.06-.1-.04-.31-.17-.65-.37a3.15 3.15 0 0 0 2.94-1.35c.15-.25.23-.53.24-.83.03-.56-.33-1.07-.88-.91-.62.18-.56 1.1.1 1.13.18 0 .31-.06.42-.2V6.6h.03v.02l.01.08c-.2.44-.5.54-.94.31-.41-.32-.44-.85-.57-1.23a1.9 1.9 0 0 0-.5-.79c-.23-.2-.5-.34-.79-.39-.56-.1-1.07.03-1.53.37 0-.02 0-.04-.02-.06.22-.18.47-.3.73-.35.8-.18 1.44.06 1.91.7a2.74 2.74 0 0 1 .4.97.03.03 0 0 0 .05 0V6.2a1 1 0 0 0-.01-.21Z" fill="#253181"/><path d="M8.53 4.6c-.62.33-1.27.6-1.92.84.1-.19.24-.34.39-.47.46-.34.97-.47 1.53-.37Z" fill="#FFF9B9"/><path d="M9.32 5c-.2.12-.4.2-.63.21-.73-.1-1.26.2-1.6.91-.2.21-.46.33-.76.38 0-.4.1-.75.28-1.06.65-.23 1.3-.51 1.92-.84.3.05.56.18.79.4Z" fill="#FFF796"/><path d="m6.98 4.91.02.06c-.15.13-.28.28-.4.47-.18.3-.27.66-.27 1.06a2.15 2.15 0 0 0 1.43 2.1l.7.17c.35.2.56.33.66.37.53.25 1.1.27 1.72.07.04.01.06.03.07.06v.01a.02.02 0 0 1-.02 0h-.07l-.09.17-.01.03-.03.02c-.2 0-.36.08-.48.25a.11.11 0 0 0 0 .13c.04.05.06.14.06.26h-.04l-.01-.01a.59.59 0 0 0-.15-.37c-.32-.3-.67-.34-1.05-.09a3.82 3.82 0 0 0-.27.2h-.01v-.01l-.13-.4c-.22-.42-.55-.57-1-.47a.1.1 0 0 1-.05 0l-.33-.08a.13.13 0 0 1-.06-.04c-.18-.2-.45-.36-.61-.57a3.1 3.1 0 0 1-.54-1.03v-.72h.08a.04.04 0 0 1 .05.01V6.65c0 .1.05.26.1.5l.01.02h.01a.03.03 0 0 0 .03 0h.03v-.03c-.2-.82.01-1.72.65-2.23Z" fill="#244F9A"/><path d="m10.4 7.01-2.02.88c-.46-.26-.7-.63-.72-1.13-.02-.65.34-1.06.92-1.1.28-.02.71.2.66.57a.2.2 0 0 1-.03.1.18.18 0 0 1-.07.05l-.04.03a.07.07 0 0 1-.08-.01.08.08 0 0 1-.02-.03v-.04c0-.1-.04-.18-.13-.2-.56-.12-.82.5-.46.9.23.22.5.25.8.1.18-.07.29-.2.33-.4.04-.01.06-.09.06-.23a1.2 1.2 0 0 0-.9-1.29c.21-.01.42-.09.62-.22.24.23.4.5.5.79.13.38.16.9.57 1.23Z" fill="#FFF36B"/><path d="M8.7 5.21c.56.17.95.64.9 1.3l-.07-.3c-.04-.31-.2-.56-.44-.74-.33-.24-.7-.29-1.1-.14-.63.23-.93.72-.92 1.45 0 .26.1.53.3.82a1.41 1.41 0 0 0 1.25.59v-.05a7.25 7.25 0 0 1-.37-.25c-.14-.1-.27-.23-.38-.37a1.34 1.34 0 0 1-.27-.82c.01-.61.3-.97.86-1.08.34-.07.88.14.84.6 0 .05-.01.09-.03.12a.21.21 0 0 1-.08.07l-.12.07a.08.08 0 0 1-.09-.01.1.1 0 0 1-.03-.04.1.1 0 0 1 0-.05c.04-.43-.82-.2-.62.38l.08.27c-.36-.4-.1-1.02.46-.9.1.02.13.1.12.2v.04l.03.03.04.01h.04l.04-.03a.18.18 0 0 0 .07-.06.2.2 0 0 0 .03-.09c.05-.37-.38-.59-.66-.57-.58.04-.94.45-.92 1.1.02.5.26.87.72 1.13.28.14.58.2.9.16.41-.05.8-.18 1.19-.4-.44.44-.97.66-1.6.67-.44.02-.85-.1-1.22-.36a1.7 1.7 0 0 1-.56-1.84c.34-.7.87-1.01 1.6-.9Z" fill="#253181"/><path d="M9.53 6.21c-.17.26-.36.38-.55.36a.12.12 0 0 1-.07-.04.21.21 0 0 1-.07-.1.17.17 0 0 0-.03-.07.15.15 0 0 0-.05-.04.14.14 0 0 0-.13 0c-.12.07-.22.21-.3.44-.2-.58.66-.8.62-.38a.1.1 0 0 0 0 .05l.03.04a.08.08 0 0 0 .09 0l.12-.06a.21.21 0 0 0 .08-.07.24.24 0 0 0 .04-.11c.03-.47-.5-.68-.85-.61-.56.11-.85.47-.86 1.08 0 .3.09.56.27.82l-.42-.32a.06.06 0 0 0-.08 0 .07.07 0 0 0-.01.08c.06.13.06.24.01.32-.2-.3-.3-.56-.3-.82-.01-.73.3-1.22.92-1.45.4-.15.77-.1 1.1.14.25.18.4.43.44.74Z" fill="#2AA1D9"/><path d="M11.8 5.6c.18.35.24.7.17 1.06-.1.54-.36 1-.78 1.39l-.5.42c-.1.08-.17.22-.2.43a.13.13 0 0 1-.12-.04.08.08 0 0 1-.01-.07l.06-.24a.1.1 0 0 1 .04-.06c.83-.6 1.47-1.28 1.15-2.45.07-.1.02-.22-.12-.36a.1.1 0 0 1-.03-.05.1.1 0 0 1 0-.06.2.2 0 0 1 .14-.12.08.08 0 0 1 .08.02l.12.13Z" fill="#244F9A"/><path d="M11.65 6.59a.93.93 0 0 0-.32.1v-.08l-.02-.01h-.02c-.11.15-.24.21-.41.2-.67-.02-.73-.94-.1-1.12.54-.16.9.35.87.9ZM7.1 6.12c-.2.74 0 1.36.55 1.84l-.61.2a2.15 2.15 0 0 1-.71-1.66c.3-.05.55-.17.76-.38Z" fill="#FFF36B"/><path d="M9.6 6.5c0 .14-.02.22-.06.23l-.33.4c-.3.15-.57.12-.8-.1l-.08-.27c.08-.23.18-.37.3-.44a.13.13 0 0 1 .13 0c.02 0 .04.02.05.04.02.02.03.04.03.07 0 .03.03.06.07.1l.07.04c.2.02.38-.1.55-.36l.07.3Z" fill="#285EA6"/><path d="M11.65 6.59c0 .3-.09.58-.24.83l-.94.23c-.38.22-.78.35-1.2.4-.31.03-.6-.02-.89-.16L10.39 7c.43.23.75.13.94-.31.1-.06.2-.1.32-.11Z" fill="#FFF796"/><path d="M9.54 6.73a.53.53 0 0 1-.33.4l.33-.4Z" fill="#1B2063"/><path d="M7.87 7.52c.11.14.24.26.38.37a7.25 7.25 0 0 0 .38.28l-.01.02H8.6c-.52.02-.93-.18-1.23-.59.05-.08.05-.19-.01-.32a.07.07 0 0 1 .01-.07.06.06 0 0 1 .07 0l.43.3Z" fill="#285EA6"/><path d="M11.41 7.42a3.15 3.15 0 0 1-2.94 1.35l-.7-.17 1.1-.28c.63 0 1.16-.23 1.6-.67l.94-.23Z" fill="#FFF9B9"/><path d="M7.65 7.96c.37.27.78.38 1.23.36l-1.12.28c-.26-.09-.5-.23-.72-.43l.61-.2Z" fill="#FFF796"/><path d="M4.56 9.89a1 1 0 0 1-.08.25.27.27 0 0 0-.03.09 1.62 1.62 0 0 1-.12.39l-.01.01a.04.04 0 0 1-.04 0 .18.18 0 0 1-.04-.06.06.06 0 0 0-.03-.02.05.05 0 0 0-.06.02l-.02.03c0 .04-.01.07-.03.08h-.04v-.01c-.04-.08-.08-.12-.15-.13l-.04.01a.08.08 0 0 0-.03.03.58.58 0 0 1-.31.26.2.2 0 0 1-.08.01c-.26 0-.38-.16-.36-.46 0-.19-.02-.29-.08-.3.02-.19.1-.35.22-.47.21-.2.55-.18.56.2a.06.06 0 0 0 .02.03l.01.01h.07c0 .02 0 .03.02.04h.05c.16-.1.23-.25.2-.46.05-.08 0-.18-.15-.3a.2.2 0 0 0-.07-.03c-.2-.07-.31-.17-.35-.3.41-.05.76.02.96.43a.2.2 0 0 0 .14.1l.01.02h.01a.04.04 0 0 1 0 .04l-.05.2-.04.06c-.15.16-.24.37-.28.6l.01.03.02.02h.03l.01-.02v-.01c.03-.14.08-.27.15-.4Z" fill="#285EA6"/><path d="M3.59 8.82c.04.12.15.22.35.29a.2.2 0 0 1 .07.03c.15.12.2.22.16.3-.24-.3-.52-.39-.85-.3-.53.16-.8.68-.81 1.25a.94.94 0 0 0-.39.35v-.5c0-.02 0-.05.02-.07l.15-.45c.1-.35.34-.62.72-.8.21-.1.4-.14.58-.1Z" fill="#2AA1D9"/><path d="M8.56 9.57c.05.16.06.36.05.58 0 .07.01.15.04.23h.01l.02.01h.01v-.02c.01-.1.08-.24.21-.43.14-.2.3-.3.51-.28l.24-.01c.14-.01.26.05.36.2.14.2.2.4.18.63v.02l.02.02h.02l.02-.02c.04-.1.17-.46.06-.6a.12.12 0 0 1 0-.15c.16-.16.52-.2.54.13l-.01.3v.05l.05.04.07.02a.11.11 0 0 0 .09-.02l.03-.03.02-.05a.68.68 0 0 0 .01-.32.1.1 0 0 1 .02-.09c.18-.23.46-.19.55.12a.1.1 0 0 1 0 .05l-.05.3v.01l.02.01h.02l.02-.01c.14-.42.42-.63.85-.62.24 0 .41.13.5.36l.02.01h.03l.01-.02c.08-.28.26-.39.54-.33.17.03.27.2.35.36l.02.01h.03V10c.05-.32.22-.43.51-.34.02 0 .04.02.06.04l.03.06a.15.15 0 0 1-.03.13.57.57 0 0 0-.11.28v.02h.03v-.02a.85.85 0 0 1 .23-.42c.22-.19.43-.2.66-.02h.03l.01-.02V9.7a.35.35 0 0 1 .03-.26l.02-.03.03-.01a.07.07 0 0 1 .06.01c.12.1.18.18.18.26a1 1 0 0 1-.11.52l-.15.3a3.71 3.71 0 0 0-.03.47l-.02.01c-.2.15.21.04-.35.4-.02.02-.04.02-.06.01l-.03-.06c.08-.03-.42.05-.83.07a.17.17 0 0 1-.22.03l-.2-.13a.07.07 0 0 0-.06 0l-.49.25a.17.17 0 0 0-.07.08.2.2 0 0 0-.02.1c.03.22 0 .41-.11.59-1.09.49-5.37.21-7.2.2h-.47c-.25.01-.5-.02-.76-.1v-.6a.57.57 0 0 0-.07-.3.1.1 0 0 0-.06-.05.7.7 0 0 1-.43-.26l-.02-.02a.06.06 0 0 0-.05 0h-.02c-.16.17-.3.21-.39.15l.3-.2a.26.26 0 0 0 .08-.1.29.29 0 0 0 .03-.12v-.22a.06.06 0 0 0-.03-.02H3.9a.06.06 0 0 0-.03.02c-.13.2-.32.29-.55.24-.34-.06-.4-.53-.31-.83.06 0 .09.1.08.3-.02.3.1.45.36.45a.2.2 0 0 0 .08-.01.58.58 0 0 0 .3-.26l.04-.03h.04c.07 0 .11.04.14.12h.01l.01.01h.03c.02 0 .03-.04.03-.08l.02-.03.03-.02h.03l.03.02c.01.03.03.05.04.05a.04.04 0 0 0 .05 0l.01-.02c.06-.13.1-.26.11-.37l.03-.1a1 1 0 0 0 .08-.24c.28-.29.64-.36 1.07-.2.02 0 .03.02.04.03v.06l-.1.44v.03l.03.02h.03s.02 0 .02-.02l.16-.3.03-.04c.3-.3.6-.36.9-.18l.05.01a.1.1 0 0 0 .05 0c.15-.05.32-.07.38.1a.1.1 0 0 1 0 .1c-.06.08-.15.28-.14.4v.01a.01.01 0 0 0 .02 0c.21-.44.48-.74.93-.61h.03l.02-.02a.04.04 0 0 0 0-.05.4.4 0 0 0-.44-.17l-.03.01-.22.17a.02.02 0 0 1-.02 0v-.01l-.03-.22a.1.1 0 0 1 0-.04c.06-.22.23-.34.49-.33.35 0 .6.16.73.49Z" fill="#253181"/><path d="M4.17 9.44c.02.21-.05.36-.2.45-.03.01-.04.02-.06.01a.04.04 0 0 1-.02-.04c.2-.1.25-.26.13-.46-.14-.24-.55-.22-.76-.14-.46.17-.65.62-.67 1.15-.01.44.16.75.53.93-.28.04-.47-.12-.57-.48a.33.33 0 0 1-.01-.07l-.03-.4c.01-.57.28-1.09.81-1.24.33-.1.61 0 .85.29Z" fill="#1B2063"/><path d="M3.89 9.86H3.8l-.02-.03v-.02c0-.37-.35-.39-.56-.19a.78.78 0 0 0-.22.48c-.08.3-.03.77.31.83.23.05.42-.04.55-.24l.03-.02h.04s.02 0 .02.02l.01.03v.19c0 .04 0 .09-.03.13a.26.26 0 0 1-.08.1l-.3.19h-.44c-.37-.17-.54-.48-.53-.92.02-.53.21-.98.67-1.15.2-.08.62-.1.76.14.12.2.07.35-.13.46Z" fill="#fff"/><path d="M10.5 12.65c-.02-.1.02-.17.11-.22a.12.12 0 0 1 .1-.02l.05.04c.02.02.05.03.07.03l.76.02c.51-.02.92-.03 1.23 0 .07 0 .13-.01.16-.03.06-.04.07-.09.05-.16a.9.9 0 0 0 .1-.58c0-.04.01-.08.03-.11a.17.17 0 0 1 .07-.08l.48-.25a.07.07 0 0 1 .07 0l.2.13a.17.17 0 0 0 .22-.03.92.92 0 0 0 .22-.38h.03a.5.5 0 0 0 .33.29.4.4 0 0 0 .25.02c0 .03.02.05.03.06h.06c.15-.1.23-.26.23-.46a.06.06 0 0 0-.01-.04l-.02-.01H15.18l-.01-.01-.01-.02v-.01l.01-.01c.13-.06.21-.02.26.12l.01.03h.03l.02-.01v-.02l.03-.45.15-.3a1 1 0 0 0 .1-.52c.1.52-.09 1.08-.32 1.52-.16.3-.57.38-.9.38a23 23 0 0 0-1.3.07c-.02 0-.02.02-.02.03l-.02.25c-.03.47-.26.72-.7.76-.52.04-1.19.04-2.01-.03Z" fill="#244F9A"/><path d="M15.03 11.32a.4.4 0 0 1-.25-.02c-.23-.1-.28-.42-.25-.63v-.02l-.01-.02a.03.03 0 0 0-.04 0c-.26.21-.04.85-.55.67l-.02-.01-.01-.02a.06.06 0 0 1 0-.05 1.4 1.4 0 0 0 .2-.66l-.02-.01h-.04l-.13.12a.18.18 0 0 0-.06.1c-.1.39-.34.72-.73.5a.15.15 0 0 1-.06-.07c-.08-.18-.04-.32.1-.43h.04l.03.01.02.04-.01.03c-.05.08-.04.15.03.2a.13.13 0 0 0 .1.03l.06-.02a.17.17 0 0 0 .05-.05c.15-.23.2-.5.12-.83-.05-.2-.22-.22-.38-.1a.03.03 0 0 1-.03 0v-.02l-.01-.01c.03-.38.43-.43.63-.2.1.13.12.36.1.53v.01l.01.02a.03.03 0 0 0 .03 0c.1-.04.17-.23.21-.55 0-.04.03-.07.05-.1a.14.14 0 0 1 .1-.04h.17l.04.01.02.03a.08.08 0 0 1 0 .08 1.23 1.23 0 0 0-.2.64l.02.02a.03.03 0 0 0 .04 0l.14-.13a.15.15 0 0 0 .05-.07c.07-.3.21-.6.53-.58.22.01.32.13.3.34-.02.12-.07.2-.18.2h-.03a.04.04 0 0 1 0-.04c.04-.13.03-.21-.06-.25a.15.15 0 0 0-.11 0 .19.19 0 0 0-.09.08c-.13.22-.17.46-.12.73.04.24.16.34.38.2h.04l.01.03c0 .16-.08.26-.23.31Z" fill="#fff"/><path d="m2.5 10.39.04.4v.07c.11.36.3.52.58.48l.44-.01c.1.06.23.02.39-.14a.06.06 0 0 1 .04-.02h.03l.02.03c.1.14.25.23.43.26a.1.1 0 0 1 .06.05c.05.07.07.17.08.3-.4-.13-.53-.22-1.3-.16-.5.03-1.07-.3-1.19-.85v-.06c.1-.16.23-.27.39-.35ZM10.93 6.25c.1 0 .17-.08.17-.19 0-.1-.08-.18-.17-.18-.1 0-.18.08-.18.18 0 .1.08.19.18.19Z" fill="#244F9A"/><path d="M8.18 9.9a.03.03 0 0 0 .03 0v-.04c-.08-.43-.33-.56-.74-.36h-.03c-.01 0-.02 0-.03-.02l-.01-.03v-.03l.09-.15a.15.15 0 0 1 .03-.04.13.13 0 0 1 .05-.03c.33-.08.59-.03.77.15.3.31.25 1.12.08 1.53-.1.26-.3.4-.6.44-1.15.13-.64-2.03.36-1.43Z" fill="#fff"/><path d="M6.5 11.2c-.2.17-.51.17-.68-.02-.24-.27-.13-.88.04-1.16.19-.3.62-.4.9-.18a.07.07 0 0 0 .07 0c.1-.06.2-.07.28-.03l.02.01a.06.06 0 0 1 .01.05v.02c-.14.28-.23.57-.26.87-.02.17.03.31.14.4l.01.02a.04.04 0 0 1 0 .03v.01c-.19.15-.34.14-.47 0 0-.02-.01-.02-.03-.02H6.5ZM9.8 9.78a.6.6 0 0 1 .2.19c.04.08.08.17.1.27a1.04 1.04 0 0 1-.29.88.8.8 0 0 1-.25.17.62.62 0 0 1-.27.05.54.54 0 0 1-.25-.08.6.6 0 0 1-.19-.19.76.76 0 0 1-.1-.27 1.04 1.04 0 0 1 .29-.88.8.8 0 0 1 .24-.17.62.62 0 0 1 .27-.05c.1 0 .18.03.25.08ZM11.08 10.68a.02.02 0 0 0 0-.02H10.64l-.02.02a1.12 1.12 0 0 0-.04.6v.02l-.01.01-.02.01c-.23.05-.38-.08-.32-.34.1-.49.26-.86.14-1.14V9.8l.02-.03c.2-.11.41-.07.39.23-.01.1-.03.2-.07.29a.07.07 0 0 0 0 .06l.03.02H11.05a.1.1 0 0 0 .07-.01.12.12 0 0 0 .04-.07c.05-.15.06-.3.04-.44a.07.07 0 0 1 .03-.07c.2-.14.41-.03.35.24l-.19.86c-.02.15.01.23.08.25l.04.02a.07.07 0 0 1 0 .08l-.02.03c-.23.13-.38.08-.44-.14-.02-.06-.01-.21.03-.44ZM12.76 10.84h.02a.04.04 0 0 1 .04 0V11l-.01.1a.22.22 0 0 1-.07.08c-.46.36-1.08.12-1.03-.57.04-.57.32-.87.83-.9.24 0 .47.21.43.5-.05.45-.5.48-.86.46h-.03a.06.06 0 0 0-.02.04c-.02.13.04.22.16.28.21.1.4.05.54-.14ZM5.59 9.8c-.06.4-.3.95-.07 1.37a.1.1 0 0 1-.04.14.09.09 0 0 1-.04.01h-.11a.22.22 0 0 1-.13-.04.25.25 0 0 1-.09-.11c-.12-.29 0-.87.08-1.1a.08.08 0 0 0-.01-.07.07.07 0 0 0-.04-.03H5.1l-.08.02a.26.26 0 0 0-.14.09.3.3 0 0 0-.07.16c-.04.35-.08.6-.14.77-.08.27-.28.42-.52.25a.1.1 0 0 1-.03-.04.11.11 0 0 1 0-.1.1.1 0 0 1 .04-.04c.3-.16.3-.57.37-.9.12-.5.62-.5 1.02-.43.01 0 .02 0 .03.02v.03Z" fill="#fff"/><path d="M8.16 10.63c.08-.3 0-.6-.18-.64-.18-.06-.38.14-.46.44-.08.3 0 .6.18.65.18.05.38-.15.46-.45ZM6.63 10.6c.08-.3 0-.59-.17-.63-.17-.05-.37.16-.44.47-.07.3 0 .6.17.64.17.05.37-.16.44-.47Z" fill="#253181"/><path d="M9.74 10.61c.07-.3 0-.6-.18-.64-.18-.05-.38.16-.46.46-.07.3.01.6.19.65.17.05.37-.16.45-.47Z" fill="#244F9A"/><path d="M12.62 10.03c.09.14.03.27-.16.38-.06.04-.18.04-.36.02l-.02-.02a2.65 2.65 0 0 0 0-.02c.05-.2.1-.3.15-.35.17-.15.3-.16.39-.01Z" fill="#253181"/><path d="M5 12h8v.75H5V12Z" fill="#fff" fill-opacity=".5"/></svg>