<svg width="18" height="18" viewBox="0 0 18 18" xmlns="http://www.w3.org/2000/svg"><path fill="#F0F3FA" d="M0 0h18v18H0z"/><path d="M9 3c1.66 0 3 1.12 3 2.5 0 .62-.27 1.18-.71 1.61.17.12.4.36.54.7L14 6v1.64l-4.67 3.9V9.9l1.22-1.02c-.1-.39-.34-.77-.79-.97-.14.03-.28.06-.43.07V6.65c.71-.11 1.24-.58 1.24-1.15 0-.65-.7-1.18-1.57-1.18-.87 0-1.57.53-1.57 1.18 0 .57.53 1.04 1.24 1.15V15L4 11.1V6.43L7 9v1.62L5 8.9v1.4l2.64 2.2V7.73C6.67 7.3 6 6.47 6 5.5 6 4.12 7.34 3 9 3Zm5 8.1L9.33 15v-1.64L14 9.46v1.64Z" fill="#0069A1"/></svg>