<svg width="18" height="18" viewBox="0 0 18 18" xmlns="http://www.w3.org/2000/svg"><path fill="#380F07" d="M0 0h18v18H0z"/><path d="M9.2 4c.57.82.75 1.85.97 2.8a.29.29 0 0 1-.16.06.05.05 0 0 1-.05-.05c-.01-1.2-.42-2.13-1.23-2.8a5 5 0 0 1 .47 0Z" fill="#C43719"/><path d="M8.73 4a3.48 3.48 0 0 1 1.23 2.83.05.05 0 0 0 .05.03c.07 0 .12-.02.16-.06l.37-.22.33-.08-.08.7-.54.25c-.23.09-.4.2-.52.32-.14.16-.3.4-.45.7l-.6.5c-.64.03-1.18-.11-1.64-.44-.62-.56-.99-1.18-.94-2.03.07-1.13.65-1.63 1.47-2.3.38-.1.77-.17 1.16-.2Z" fill="#FC6E22"/><path d="M9.9 4.08c.43.9.7 1.54.64 2.5l-.37.22c-.22-.95-.4-1.98-.97-2.8.24.01.47.04.7.08Z" fill="#B1361C"/><path d="m10.97 4.4.25 1.84c.04.1-.08.18-.35.26l-.33.08c.05-.96-.21-1.6-.64-2.5.37.07.73.18 1.07.32Z" fill="#962A17"/><path d="M7.57 4.2c-.82.67-1.4 1.17-1.47 2.3-.05.86.32 1.47.94 2.03-1.2-.6-1.51-1.96-.91-3.12.16-.3.44-.6.67-.9.25-.12.5-.22.77-.3Z" fill="#ED541E"/><path d="M12.23 5.18c-.06.24-.09.5-.07.76l-.4.16a.92.92 0 0 1-.54.14l-.25-1.84a5 5 0 0 1 1.26.78Z" fill="#7D463D"/><path d="M6.8 4.51c-.23.3-.52.6-.67.9-.6 1.16-.28 2.51.91 3.12.46.33 1 .47 1.63.43.2.02.41-.15.6-.5.17-.3.32-.53.46-.69.12-.13.3-.23.52-.32a8.6 8.6 0 0 0-.17 1c-.03.3-.08.5-.13.59-.23.38-.74.38-1.14.36a.04.04 0 0 0-.04.04v.35a.02.02 0 0 0 .03.01 1.43 1.43 0 0 1 .03-.07.06.06 0 0 1 .04-.02h.02l.33.13a.01.01 0 0 1 0 .02h-.35a.04.04 0 0 0-.03.02.04.04 0 0 0 0 .03l.15.73.22.64a.02.02 0 0 1-.01.02H9.14a.04.04 0 0 1-.04-.02l-.1-.33-.2-.76-.1-.45a.1.1 0 0 0-.06-.06c-.53-.26-1.13-.3-1.64-.53C5.59 8.53 5.23 7.41 5 5.98A5 5 0 0 1 6.8 4.5Z" fill="#C43719"/><path d="M12.23 5.18c.19.16.36.33.52.5l-.6.26c-.01-.26.02-.52.08-.76Z" fill="#551C12"/><path d="M13.13 6.18c-.03.04-.07.07-.1.08l-.85.37-.23.07-.19-.6.4-.16.59-.25a5 5 0 0 1 .38.49Z" fill="#C43719"/><path d="M8.8 10.2c-.55-.46-1.14-.44-1.77-.7A10.6 10.6 0 0 0 6 9.12a.5.5 0 0 1-.15-.07c-.49-.34-.8-.88-1.14-1.23a.1.1 0 0 0-.08-.03 2.55 2.55 0 0 1-.33.07.02.02 0 0 1 0-.03l.47-.28c.02-.01.03-.02.03-.04v-.04L4.6 6.6a5 5 0 0 1 .41-.63C5.23 7.4 5.59 8.53 7 9.15c.51.23 1.1.27 1.64.53a.1.1 0 0 1 .05.06l.1.45Z" fill="#962A17"/><path d="m11.76 6.1.2.6-.55.24-.62.27.08-.71c.27-.08.39-.17.35-.26.2.01.37-.03.54-.14Z" fill="#ED541E"/><path d="M13.13 6.18c.12.18.24.37.33.56l-.23.31a.07.07 0 0 1-.07.03.07.07 0 0 1-.05-.06l-.07-.76.1-.08Z" fill="#782012"/><path d="m13.04 6.26.07.76a.07.07 0 0 0 .09.05c.01 0 .02 0 .03-.02l.23-.31c.4.79.58 1.66.53 2.54-.26-.25-.58-.29-.7.07l-.08.24a.3.3 0 0 1-.35.17l-.4-.11a.04.04 0 0 0-.05.02l-.18.3a.02.02 0 0 0 .01.03l1.56.37c-.1.34-.23.67-.4.99l-1-1.06c-.03-.04-.12-.1-.27-.21.13-.6-.07-1.07-.3-1.74l.1-.48a.07.07 0 0 1 .06-.06.07.07 0 0 1 .07.04l.29.66v.01a1.39 1.39 0 0 0 .71.45.05.05 0 0 0 .04-.05c-.03-.3-.08-.48-.15-.57-.22-.3-.4-.6-.57-.93a.65.65 0 0 0 .03-.31.03.03 0 0 0-.05-.02.84.84 0 0 0-.13.27c-.09-.21-.1-.45-.05-.73l.86-.37Z" fill="#551C12"/><path d="m4.6 6.61.2.86v.04l-.04.04-.47.28a.02.02 0 0 0-.01.02.02.02 0 0 0 .02.02l.32-.08a.1.1 0 0 1 .08.03c.33.35.65.9 1.14 1.23l.15.07c.33.1.68.22 1.04.38.63.26 1.22.24 1.77.7l.2.75a2.78 2.78 0 0 0-.53-.23c-.48-.1-.93-.16-1.31-.33-.48-.22-.9-.43-1.24-.64-.58-.35-.86-.74-1.27-1.3-.1-.14-.29-.3-.55-.47.1-.48.27-.94.5-1.37Z" fill="#782012"/><path d="M12.18 6.63c-.06.28-.04.52.05.73a.2.2 0 0 0-.02.12c.01.05.04.07.1.06.04 0 .06-.04.07-.12.16.33.35.64.57.93a1.33 1.33 0 0 1 .15.6.04.04 0 0 1-.04.02h-.02a1.39 1.39 0 0 1-.7-.46l-.28-.66a.07.07 0 0 0-.07-.04c-.02 0-.03 0-.04.02a.07.07 0 0 0-.02.04l-.1.48c-.02.35-.02.73-.11 1.04a2 2 0 0 1-.73 1.02v-.01l-.06-.48V8.24c0-.04 0-.08.02-.12l.46-1.18.54-.24.23-.07Z" fill="#7D463D"/><path d="m11.4 6.94-.45 1.18a.33.33 0 0 0-.02.12v1.68c-.62.48-1.23.53-1.94.72l-.15-.73a.03.03 0 0 1 0-.03.04.04 0 0 1 .03-.01h.34a.01.01 0 0 0 .01-.02l-.33-.13a.06.06 0 0 0-.04 0 .06.06 0 0 0-.03.04 1.42 1.42 0 0 0-.02.04.02.02 0 0 1-.03-.01v-.35a.04.04 0 0 1 .04-.04c.4.02.91.02 1.14-.36.05-.1.1-.3.13-.6.04-.33.1-.66.17-.99l.54-.24.62-.27Z" fill="#AA2314"/><path d="M12.38 7.42c0 .08-.03.12-.08.12-.05.01-.08-.01-.1-.06 0-.03 0-.07.03-.12.03-.11.08-.2.13-.27a.03.03 0 0 1 .05.02c.02.1 0 .2-.03.31Z" fill="#9E9E9E"/><path d="m9 10.95.1.33a.04.04 0 0 0 .04.02h.05a.02.02 0 0 0 .01 0v-.02l-.2-.64c.7-.19 1.31-.24 1.93-.72l.05.48-.04.51A.07.07 0 0 0 11 11l1.32.59c-.74.42-1.48.84-2.2 1.27-.14.08-.56.28-1.28.6-.4.18-.63.01-.9-.3l.4.2a.28.28 0 0 0 .26-.01l.86-.45.53-.31 1.06-.58.02-.02v-.03a.05.05 0 0 0-.02-.04l-.52-.2a.3.3 0 0 0-.2-.01c-.37.12-.71.28-1.04.47-.24.15-.39.22-.42.2h-.03a.06.06 0 0 0-.04.02l-.01.02c-.02.08-.06.11-.12.11a.15.15 0 0 0-.1.04.48.48 0 0 1-.23.13c.13-.5.11-.77-.15-1.25l-.85.27a.02.02 0 0 1-.02 0l-.02-.01a.06.06 0 0 1-.02-.06.06.06 0 0 1 .03-.04 34.33 34.33 0 0 0 .78-.38l-.05-.05h-.01a.71.71 0 0 1-.57.16 3.5 3.5 0 0 0-1.08-.71.28.28 0 0 0-.3.05.08.08 0 0 1-.1 0c-.7-.55-1.36-1.15-1.97-1.82 0-.3.04-.58.1-.87.26.17.45.33.55.48.4.55.69.94 1.27 1.29.35.21.76.42 1.24.64.38.17.83.22 1.3.33.1.02.27.1.53.23Z" fill="#5F190F"/><path d="M12.13 10.09c-.26.48-.7.43-1.14.32a2 2 0 0 0 .73-1.02c.1-.31.09-.69.11-1.04.23.67.43 1.14.3 1.74Z" fill="#60322A"/><path d="M9.28 8.46c-.2.35-.4.52-.6.5l.6-.5Z" fill="#ED541E"/><path d="M12.13 10.09c.05.64.06 1.27.72 1.61l.02.01a.04.04 0 0 1 0 .04l-.01.01c-.22.17-.3.4-.25.67a5 5 0 0 1-3.78 1.54c.95-.6 1.9-1.17 2.85-1.69.29-.15.52-.37.84-.47a.06.06 0 0 0 .05-.05.06.06 0 0 0-.03-.06l-.23-.12-1.32-.6a.07.07 0 0 1-.05-.07l.04-.51c.46.12.89.17 1.15-.31Z" fill="#461A13"/><path d="M7.45 11.33a.71.71 0 0 0 .57-.16l.05.04v.01a.02.02 0 0 1 0 .03 34.3 34.3 0 0 1-.79.37.06.06 0 0 0 0 .05v.03l.03.01a.02.02 0 0 0 .02 0l.85-.27c.07.2.1.34.11.45a.11.11 0 0 1-.05.1l-.9.52a.13.13 0 0 1-.12 0c-.37-.21-.58-.52-.86-.83l-.25-.23a.1.1 0 0 1-.04-.08v-.26a.07.07 0 0 1 .05-.07h.03l1.3.3Z" fill="#60322A"/><path d="M9.98 12.58c-.14-.23-.44-.3-.9-.22l-.28.22a.12.12 0 0 0-.04.09.4.4 0 0 1-.08.22.1.1 0 0 1-.1.04c-.25-.07-.47 0-.65.22a.31.31 0 0 1-.16-.11.05.05 0 0 1 .01-.07l.55-.28a.49.49 0 0 0 .23-.13.15.15 0 0 1 .1-.04c.06 0 .1-.03.12-.1a.06.06 0 0 1 .05-.05h.03c.03.02.18-.05.42-.2.33-.19.67-.35 1.03-.47a.3.3 0 0 1 .21 0l.52.2.02.02v.06l-.02.02-1.06.58Z" fill="#ED541E"/><path d="m9.98 12.58-.53.3-.3-.07a.1.1 0 0 1-.08-.07c-.03-.09-.03-.21.02-.38.45-.08.75-.01.89.22Z" fill="#FCBD31"/><path d="M9.09 12.36c-.05.17-.05.3-.02.38a.1.1 0 0 0 .07.07l.3.08-.85.45a.29.29 0 0 1-.26 0l-.4-.19c.18-.21.4-.29.65-.22a.1.1 0 0 0 .1-.04.4.4 0 0 0 .08-.22.12.12 0 0 1 .04-.09l.29-.22Z" fill="#FC6E22"/><path d="M9.6 5.8c-.32-.68-.77-1.4-1.64-1.13a.24.24 0 0 0-.17.08l-.27.15c-.61.65-.85 1.46-.72 2.42.02.18.11.41.27.72l.22.29c-.83-.63-1.07-1.45-.71-2.46a2.26 2.26 0 0 1 1.96-1.58A2.66 2.66 0 0 1 9.6 5.8Z" fill="#FF9E2A"/><path d="M9.6 5.8c.1.43.11.84.03 1.24l-.82.38.23-.2a.15.15 0 0 0 .05-.1c.09-.57.05-1.14-.11-1.7-.15-.48-.49-.73-1.02-.75.87-.27 1.32.45 1.64 1.13Z" fill="#FCE867"/><path d="M7.96 4.67c.53.02.87.27 1.01.75.17.56.2 1.13.12 1.7 0 .04-.02.07-.05.1l-.23.2a.32.32 0 0 0-.13.05c.36-.53.33-1.23.17-1.82-.16-.58-.45-.9-1.06-.9.05-.05.1-.08.17-.08Z" fill="#FCF4AE"/><path d="m8.68 7.47-.7.3c-.04 0-.07-.01-.08-.03l.9-.58a.1.1 0 0 0 .04-.08 3.67 3.67 0 0 0-.23-1.64c-.18-.42-.54-.6-1.1-.54l.28-.15c.61 0 .9.32 1.06.9.16.6.2 1.3-.17 1.82Z" fill="#FCF9D7"/><path d="m7.9 7.74-.83.3c-.16-.3-.25-.54-.27-.72-.13-.96.1-1.77.72-2.42.55-.06.91.12 1.09.54a3.67 3.67 0 0 1 .22 1.68.1.1 0 0 1-.04.04l-.89.58Z" fill="#FFFFFE"/><path d="M9.63 7.04c-.26.28-.4.6-.43.94 0 .05-.02.1-.05.15a5.93 5.93 0 0 0-.29.54.24.24 0 0 0-.05.08.23.23 0 0 1-.14.17.22.22 0 0 1-.21-.04l-.1-.09a8 8 0 0 0-.56-.12c-.1-.01-.25-.12-.45-.32l.08-.31a.1.1 0 0 1 .09-.08h.11a.05.05 0 0 1 .04.07c-.03.06.01.13.12.22.01.08 0 .14-.02.18a.18.18 0 0 0-.06.08.06.06 0 0 0 .05.08l.69.04a.23.23 0 0 0 .23-.3 1.07 1.07 0 0 0-.16-.27.14.14 0 0 0-.11-.05h-.54a.08.08 0 0 1-.07-.11c0-.02.02-.03.04-.04l.15-.09.69-.3c.05-.03.1-.05.13-.05l.82-.38Z" fill="#FCBD31"/><path d="M7.9 7.74c.01.02.04.03.09.03l-.15.1a.08.08 0 0 0 .03.14h.54a.14.14 0 0 1 .1.05c.1.13.16.22.17.26a.23.23 0 0 1-.23.3l-.69-.03a.06.06 0 0 1-.05-.08.18.18 0 0 1 .06-.08c.03.07.08.1.17.1a7.1 7.1 0 0 0 .54-.03.11.11 0 0 0 .05-.13c-.04-.13-.11-.21-.23-.24-.3-.05-.47-.02-.5.12-.12-.1-.16-.16-.13-.22a.05.05 0 0 0-.04-.07h-.11a.1.1 0 0 0-.1.08l-.07.31a3.6 3.6 0 0 1-.06-.02l-.22-.3.83-.3Z" fill="#FCE867"/><path d="M7.77 8.43c.02-.05.03-.1.02-.18.04-.14.2-.17.5-.12.13.03.2.1.24.24a.1.1 0 0 1-.1.14 7.1 7.1 0 0 1-.5.03c-.08 0-.13-.04-.16-.11Z" fill="#FCF9D7"/></svg>