<svg width="18" height="18" viewBox="0 0 18 18" xmlns="http://www.w3.org/2000/svg"><path fill="#F0F3FA" d="M0 0h18v18H0z"/><path d="M13 7.62v-3.6c-.41.2-.85.2-1.15.2-.28 0-.63-.14-1.66-.2-.3-.04-.6 0-.93.03a5.67 5.67 0 0 0-3.7 2.15A58.3 58.3 0 0 1 13 10.06v-.73c-1.05-.7-2-1.45-3.25-2.08a3.3 3.3 0 0 1 1.3-.25c.68 0 1.4.19 1.96.62ZM9.28 9.39A54.8 54.8 0 0 1 13 11.52v-.73a61.23 61.23 0 0 0-3.72-2.12c-1.31-.7-2.66-1.34-4.08-1.9-.1.2-.18.4-.26.61 1.47.6 2.92 1.26 4.34 2Zm-2.3 3.64c.7.44 1.51.71 2.3.84a9.11 9.11 0 0 0 2.13.09A4 4 0 0 1 13 14v-.3a58.12 58.12 0 0 0-3.73-2.15 45 45 0 0 0-4.59-2.09 4.58 4.58 0 0 0 2.28 3.57ZM3 5.23v.73c.57.18 1.15.39 1.7.62.17.05.33.13.5.2.11-.2.24-.38.37-.56l-.88-.36C4.14 5.62 3.57 5.4 3 5.22Zm0 1.43v.74c.57.2 1.15.39 1.7.62l.07.03c.04-.22.1-.45.17-.65l-.25-.1c-.54-.23-1.12-.43-1.69-.64Zm1.68 2.06A54.85 54.85 0 0 1 13 12.97v-.73a54.6 54.6 0 0 0-8.23-4.2c-.04.18-.06.38-.08.57v.11ZM3 8.84c.57.2 1.15.4 1.7.62v-.09c-.02-.13-.03-.24-.03-.37l.01-.28L3 8.12v.72Z" fill="#631E3B"/></svg>