<svg width="18" height="18" viewBox="0 0 18 18" xmlns="http://www.w3.org/2000/svg"><path fill="#FFC52E" d="M0 0h18v18H0z"/><path d="M9.18 4c3.1 0 3.84 2.53 3.82 3.8v5.7c0 .28-.2.5-.45.5h-1.1c-.25 0-.45-.22-.45-.5v-.47l-.96.55c-.47.28-1 .42-1.55.42H7.9C6.3 14 5 12.66 5 11s1.3-3 2.9-3H11v-.2c0-.75-.64-1.8-1.82-1.8-.54 0-.93.17-1.19.45-.27.3-.6.55-.98.55h-.66c-.46 0-.73-.18-.73-.72 0-.55.56-2.28 3.56-2.28Zm-1.17 6A1 1 0 0 0 7 11a1 1 0 0 0 1.01 1h.07c.71 0 1.64-.19 2.26-.54l.66-.37V10H8.01Z"/></svg>