<svg width="18" height="18" viewBox="0 0 18 18" xmlns="http://www.w3.org/2000/svg"><path fill="#F0F3FA" d="M0 0h18v18H0z"/><path d="M14.71 6.17a.35.35 0 0 1 .65.1L16 8.72l-1.33 2.11a.31.31 0 0 1-.56-.08l-.46-1.6-1.13 1.73a.28.28 0 0 1-.44.03.3.3 0 0 1-.04-.36l2.67-4.37Zm.48.15a.18.18 0 0 0-.32-.05l-2.67 4.37c-.03.05-.02.1 0 .14a.1.1 0 0 0 .17-.01l1.34-2.06.57 1.98c.03.1.18.13.24.03l1.29-2.04-.62-2.36ZM12.39 6.17c.17-.27.6-.2.69.11l.37 1.47-1.59 2.47-.45-1.29-1.19 1.76h-3.2l-.7-1.5-1.28 1.5H2.36a.35.35 0 0 1-.36-.35c0-.19.16-.35.36-.35h2.42L6.1 8.44c.17-.21.52-.17.63.08l.7 1.47H9.9l2.5-3.82ZM2.64 8.31c0-.17.16-.31.37-.31h1.55c.2 0 .33.14.3.3l-.08.32H3.01c-.2 0-.37-.13-.37-.3Z" fill="#F6742A"/><path d="M2.95 9.31c0-.17.14-.31.32-.31H4.7l-.15.63H3.27a.31.31 0 0 1-.32-.32ZM10.27 8.31c0-.17-.16-.31-.37-.31H8.07c-.06 0-.1.01-.15.03-.2.1-.16.38-.2.6H9.9c.2 0 .37-.14.37-.32ZM9.95 9.31c0 .18-.14.31-.3.31H7.57L7.73 9h1.91c.17 0 .31.14.31.31Z" fill="#F6742A"/></svg>