<svg width="18" height="18" viewBox="0 0 18 18" xmlns="http://www.w3.org/2000/svg"><path fill="#F0F3FA" d="M0 0h18v18H0z"/><path d="M9 3a6 6 0 0 1 6 6v6h-1V9a5 5 0 1 0-5.26 5H9v1h-.3A6 6 0 0 1 9 3Zm2 12h-1v-1.1c.35-.07.68-.18 1-.32V15Zm2 0h-1v-2c.38-.28.72-.62 1-1v3ZM9 5a4 4 0 1 1 0 8 4 4 0 0 1 0-8Zm0 .25a3.75 3.75 0 1 0 0 7.5 3.75 3.75 0 0 0 0-7.5Z" fill="#005294"/><path d="M11.64 11.64H10v-.97a1.98 1.98 0 1 0-2 .03v.94H6.36V6.36h5.28v5.28Z" fill="#005294"/><path d="M7.54 9.32c.54.16.97.6 1.14 1.14a1.5 1.5 0 0 1-1.14-1.14Zm2.92 0a1.5 1.5 0 0 1-1.14 1.14c.16-.54.6-.98 1.14-1.14ZM8.68 7.54c-.17.54-.6.97-1.14 1.14a1.5 1.5 0 0 1 1.14-1.14Zm.64 0a1.5 1.5 0 0 1 1.14 1.14c-.54-.17-.98-.6-1.14-1.14ZM9.14 8.23c.08.31.32.55.63.63l.6.14-.6.14a.85.85 0 0 0-.63.63l-.14.6-.14-.6a.85.85 0 0 0-.63-.63L7.63 9l.6-.14a.85.85 0 0 0 .63-.63l.14-.6.14.6Zm-.14.3a.62.62 0 0 1-.46.47c.23.05.4.23.46.46.05-.23.23-.4.46-.46A.62.62 0 0 1 9 8.54Z" fill="#005294"/></svg>